<svg id="visual" viewBox="0 0 960 400" width="960" height="400" xmlns="http://www.w3.org/2000/svg" xmlns:xlink="http://www.w3.org/1999/xlink" version="1.1"><path d="M0 161L26.7 164.3C53.3 167.7 106.7 174.3 160 167C213.3 159.7 266.7 138.3 320 139.7C373.3 141 426.7 165 480 179C533.3 193 586.7 197 640 189.7C693.3 182.3 746.7 163.7 800 163C853.3 162.3 906.7 179.7 933.3 188.3L960 197L960 0L933.3 0C906.7 0 853.3 0 800 0C746.7 0 693.3 0 640 0C586.7 0 533.3 0 480 0C426.7 0 373.3 0 320 0C266.7 0 213.3 0 160 0C106.7 0 53.3 0 26.7 0L0 0Z" fill="#FF6969"></path><path d="M0 309L26.7 312.3C53.3 315.7 106.7 322.3 160 326.3C213.3 330.3 266.7 331.7 320 329C373.3 326.3 426.7 319.7 480 318.3C533.3 317 586.7 321 640 324.3C693.3 327.7 746.7 330.3 800 330.3C853.3 330.3 906.7 327.7 933.3 326.3L960 325L960 195L933.3 186.3C906.7 177.7 853.3 160.3 800 161C746.7 161.7 693.3 180.3 640 187.7C586.7 195 533.3 191 480 177C426.7 163 373.3 139 320 137.7C266.7 136.3 213.3 157.7 160 165C106.7 172.3 53.3 165.7 26.7 162.3L0 159Z" fill="#141E46"></path><path d="M0 401L26.7 401C53.3 401 106.7 401 160 401C213.3 401 266.7 401 320 401C373.3 401 426.7 401 480 401C533.3 401 586.7 401 640 401C693.3 401 746.7 401 800 401C853.3 401 906.7 401 933.3 401L960 401L960 323L933.3 324.3C906.7 325.7 853.3 328.3 800 328.3C746.7 328.3 693.3 325.7 640 322.3C586.7 319 533.3 315 480 316.3C426.7 317.7 373.3 324.3 320 327C266.7 329.7 213.3 328.3 160 324.3C106.7 320.3 53.3 313.7 26.7 310.3L0 307Z" fill="#141E46"></path></svg>