<svg id="visual" viewBox="0 0 960 540" width="960" height="540" xmlns="http://www.w3.org/2000/svg" xmlns:xlink="http://www.w3.org/1999/xlink" version="1.1"><rect x="0" y="0" width="960" height="540" fill="#c6c6c6"></rect><defs><linearGradient id="grad1_0" x1="43.8%" y1="0%" x2="100%" y2="100%"><stop offset="14.444444444444446%" stop-color="#0066ff" stop-opacity="1"></stop><stop offset="85.55555555555554%" stop-color="#0066ff" stop-opacity="1"></stop></linearGradient></defs><defs><linearGradient id="grad1_1" x1="43.8%" y1="0%" x2="100%" y2="100%"><stop offset="14.444444444444446%" stop-color="#0066ff" stop-opacity="1"></stop><stop offset="85.55555555555554%" stop-color="#ffffff" stop-opacity="1"></stop></linearGradient></defs><defs><linearGradient id="grad2_0" x1="0%" y1="0%" x2="56.3%" y2="100%"><stop offset="14.444444444444446%" stop-color="#0066ff" stop-opacity="1"></stop><stop offset="85.55555555555554%" stop-color="#0066ff" stop-opacity="1"></stop></linearGradient></defs><defs><linearGradient id="grad2_1" x1="0%" y1="0%" x2="56.3%" y2="100%"><stop offset="14.444444444444446%" stop-color="#ffffff" stop-opacity="1"></stop><stop offset="85.55555555555554%" stop-color="#0066ff" stop-opacity="1"></stop></linearGradient></defs><g transform="translate(960, 0)"><path d="M0 324C-45.9 323.6 -91.7 323.2 -124 299.3C-156.3 275.4 -174.9 228 -192.3 192.3C-209.7 156.6 -225.9 132.7 -247.6 102.6C-269.3 72.5 -296.7 36.2 -324 0L0 0Z" fill="#FF6969"></path><path d="M0 162C-22.9 161.8 -45.9 161.6 -62 149.7C-78.1 137.7 -87.5 114 -96.2 96.2C-104.9 78.3 -112.9 66.3 -123.8 51.3C-134.7 36.2 -148.3 18.1 -162 0L0 0Z" fill="#141E46"></path></g><g transform="translate(0, 540)"><path d="M0 -324C35.4 -303.9 70.8 -283.8 112.5 -271.6C154.3 -259.4 202.4 -255.2 229.1 -229.1C255.8 -203 261.2 -155.1 273.5 -113.3C285.7 -71.5 304.9 -35.7 324 0L0 0Z" fill="#FF6969"></path><path d="M0 -162C17.7 -151.9 35.4 -141.9 56.3 -135.8C77.1 -129.7 101.2 -127.6 114.6 -114.6C127.9 -101.5 130.6 -77.5 136.7 -56.6C142.9 -35.7 152.4 -17.9 162 0L0 0Z" fill="#141E46"></path></g></svg>