<svg id="visual" viewBox="0 0 960 540" width="960" height="540" xmlns="http://www.w3.org/2000/svg" xmlns:xlink="http://www.w3.org/1999/xlink" version="1.1"><g><g transform="translate(149 236)"><path d="M69.3 -24.6C81.2 14 76.2 56 51 75.5C25.8 95 -19.5 92.1 -47.9 70.4C-76.4 48.7 -87.9 8.2 -77.1 -29C-66.3 -66.1 -33.2 -99.8 -2.2 -99.1C28.7 -98.4 57.5 -63.2 69.3 -24.6Z" fill="#82b7e3"></path></g><g transform="translate(450 308)"><path d="M48.4 -18.2C55.2 5.5 48.3 31.1 27.5 48.8C6.8 66.4 -27.7 76 -45 63.1C-62.4 50.2 -62.6 14.9 -52.3 -13.6C-41.9 -42 -21 -63.6 -0.1 -63.6C20.7 -63.5 41.5 -41.9 48.4 -18.2Z" fill="#82b7e3"></path></g><g transform="translate(715 160)"><path d="M76.6 -29.2C83 -5.3 60.6 23.7 36.1 39C11.5 54.3 -15.2 56 -37.1 42.2C-59.1 28.4 -76.2 -1 -69.2 -25.8C-62.2 -50.6 -31.1 -70.8 2 -71.4C35.1 -72.1 70.3 -53.2 76.6 -29.2Z" fill="#82b7e3"></path></g></g></svg>