<svg id="visual" viewBox="0 0 960 540" width="960" height="540" xmlns="http://www.w3.org/2000/svg" xmlns:xlink="http://www.w3.org/1999/xlink" version="1.1"><rect x="0" y="0" width="960" height="540" fill="#c6c6c6"></rect><defs><linearGradient id="grad1_0" x1="43.8%" y1="100%" x2="100%" y2="0%"><stop offset="14.444444444444446%" stop-color="#0066ff" stop-opacity="1"></stop><stop offset="85.55555555555554%" stop-color="#0066ff" stop-opacity="1"></stop></linearGradient></defs><defs><linearGradient id="grad1_1" x1="43.8%" y1="100%" x2="100%" y2="0%"><stop offset="14.444444444444446%" stop-color="#0066ff" stop-opacity="1"></stop><stop offset="85.55555555555554%" stop-color="#ffffff" stop-opacity="1"></stop></linearGradient></defs><defs><linearGradient id="grad2_0" x1="0%" y1="100%" x2="56.3%" y2="0%"><stop offset="14.444444444444446%" stop-color="#0066ff" stop-opacity="1"></stop><stop offset="85.55555555555554%" stop-color="#0066ff" stop-opacity="1"></stop></linearGradient></defs><defs><linearGradient id="grad2_1" x1="0%" y1="100%" x2="56.3%" y2="0%"><stop offset="14.444444444444446%" stop-color="#ffffff" stop-opacity="1"></stop><stop offset="85.55555555555554%" stop-color="#0066ff" stop-opacity="1"></stop></linearGradient></defs><g transform="translate(960, 540)"><path d="M-324 0C-308.8 -42.3 -293.6 -84.5 -267 -110.6C-240.4 -136.7 -202.6 -146.6 -180.3 -180.3C-158.1 -214 -151.4 -271.4 -124 -299.3C-96.5 -327.2 -48.3 -325.6 0 -324L0 0Z" fill="#FF6969"></path><path d="M-162 0C-154.4 -21.1 -146.8 -42.3 -133.5 -55.3C-120.2 -68.3 -101.3 -73.3 -90.2 -90.2C-79 -107 -75.7 -135.7 -62 -149.7C-48.3 -163.6 -24.1 -162.8 0 -162L0 0Z" fill="#141E46"></path></g><g transform="translate(0, 0)"><path d="M324 0C318.6 40.8 313.3 81.7 299.3 124C285.4 166.3 262.9 210 227 227C191.1 243.9 141.9 234.1 101.8 245.8C61.7 257.5 30.9 290.7 0 324L0 0Z" fill="#FF6969"></path><path d="M162 0C159.3 20.4 156.6 40.8 149.7 62C142.7 83.1 131.4 105 113.5 113.5C95.5 122 70.9 117 50.9 122.9C30.9 128.7 15.4 145.4 0 162L0 0Z" fill="#141E46"></path></g></svg>