<svg id="visual" viewBox="0 0 960 540" width="960" height="540" xmlns="http://www.w3.org/2000/svg" xmlns:xlink="http://www.w3.org/1999/xlink" version="1.1"><g transform="translate(850.8346459145795 77.95516221491042)"><path d="M281.7 -316.2C399.7 -236.7 553.9 -180.8 629.9 -64.5C705.9 51.8 703.7 228.4 603 296.8C502.3 365.1 303.1 325.3 160.5 328.3C18 331.2 -68 377.1 -169.4 378.1C-270.9 379.1 -387.9 335.3 -435.8 251.8C-483.7 168.4 -462.4 45.3 -442.2 -79.5C-422 -204.3 -402.9 -330.8 -329.4 -418.2C-255.8 -505.6 -127.9 -553.8 -23 -526.3C81.8 -498.9 163.7 -395.8 281.7 -316.2" fill="#0066FF"></path></g></svg>